<svg width="200" height="200" viewBox="0 0 200 200" fill="none" xmlns="http://www.w3.org/2000/svg">
  <path fill-rule="evenodd" clip-rule="evenodd" d="M100 25C88.9543 25 80 33.9543 80 45C80 51.3652 82.9067 57.0377 87.5 60.7574C72.5 65 65 75 62.5 90C55 90 50 95 47.5 105C45 115 50 120 60 120C60 135 65 145 75 150C75 160 80 165 90 165C90 175 95 180 105 180C115 180 120 175 120 165C130 165 135 160 135 150C145 145 150 135 150 120C160 120 165 115 162.5 105C160 95 155 90 147.5 90C145 75 137.5 65 122.5 60.7574C127.093 57.0377 130 51.3652 130 45C130 33.9543 121.046 25 110 25C105 25 102.5 30 100 30C97.5 30 95 25 90 25H100ZM75 90C75 85 85 85 85 90C85 95 75 95 75 90ZM115 90C115 85 125 85 125 90C125 95 115 95 115 90ZM70 110C70 105 85 105 85 110C85 115 70 115 70 110ZM115 110C115 105 130 105 130 110C130 115 115 115 115 110Z" 
    fill="#0f172a" fill-opacity="0.1"/>
</svg>
