<svg width="32" height="32" viewBox="0 0 32 32" fill="none" xmlns="http://www.w3.org/2000/svg">
  <rect width="32" height="32" rx="16" fill="#1E293B"/>
  <path d="M16 5C14.3431 5 13 6.34315 13 8C13 9.01474 13.5 9.91934 14.25 10.4879C12 11.2 10.5 12.8 10 15.2C8.8 15.2 8 16 7.6 17.6C7.2 19.2 8 20 9.6 20C9.6 22.4 10.4 24 12 24.8C12 26.4 12.8 27.2 14.4 27.2C16 27.2 16.8 26.4 16.8 24.8C18.4 24.8 19.2 24 19.2 22.4C20.8 21.6 21.6 20 21.6 17.6C23.2 17.6 24 16.8 23.6 15.2C23.2 13.6 22.4 12.8 21.2 12.8C20.7 10.4 19.2 8.8 16.95 10.4879C17.7 9.91934 18.2 9.01474 18.2 8C18.2 6.34315 16.8569 5 15.2 5C14.4 5 14 5.8 13.6 6.4C13.2 5.8 12.8 5 12 5H16Z" fill="#4ADE80"/>
  <circle cx="12" cy="14.4" r="1" fill="#1E293B"/>
  <circle cx="18" cy="14.4" r="1" fill="#1E293B"/>
  <path d="M11.6 17.6C11.6 16.8 13.6 16.8 13.6 17.6C13.6 18.4 11.6 18.4 11.6 17.6Z" fill="#1E293B"/>
  <path d="M18.4 17.6C18.4 16.8 20.4 16.8 20.4 17.6C20.4 18.4 18.4 18.4 18.4 17.6Z" fill="#1E293B"/>
</svg>
